<svg width="400" height="111" viewBox="0 0 400 111" fill="none" xmlns="http://www.w3.org/2000/svg">
<path d="M246.211 23.039C246.777 23.8076 247.083 24.7419 247.083 25.6978V40.3946L227.577 19.0736H218.982L239.14 41.1103H237.638L217.48 19.0736H211.127L214.048 23.039C214.614 23.8076 214.92 24.7419 214.92 25.6978V56.518C214.92 57.4739 214.614 58.4058 214.048 59.1768L211.127 63.1398H222.972L220.054 59.1768C219.488 58.4058 219.183 57.4739 219.183 56.518V30.3478L249.17 63.1302H251.346V25.6978C251.346 24.7419 251.651 23.8076 252.22 23.039L255.136 19.0736H243.293L246.211 23.039ZM171.781 55.4108L176.27 63.1278L180.76 55.4108L176.27 47.6937L171.781 55.4108ZM183.528 63.1302H206.545L201.733 57.6493L187.189 19.0712H180.514L188.813 41.1007H187.628L179.33 19.0712H172.676L174.1 22.8517L161.111 57.253C160.573 58.6821 160.022 59.4554 159.695 59.8301L156.351 63.1302H168.712L165.221 59.6836C164.872 59.3378 164.982 58.9439 165.018 58.8406L176.38 28.9043L186.814 56.5781C187.024 57.289 187.208 58.6028 186.253 59.7725C184.858 61.4874 183.523 63.1326 183.523 63.1326M32.4272 55.4132L36.9169 63.1302L41.4065 55.4132L36.9169 47.6961L32.4272 55.4132ZM47.8353 19.0736H41.1629L49.4616 41.1007H48.2771L39.9784 19.0736H33.3251L34.7509 22.8565L21.7595 57.253C21.2222 58.6821 20.6729 59.4554 20.3434 59.8325L17 63.1326H29.3633L25.8718 59.6884C25.5232 59.3426 25.633 58.9463 25.6712 58.8454L37.0339 28.9067L47.4699 56.5805C47.6777 57.2914 47.8616 58.6052 46.9087 59.7773C45.5141 61.4898 44.1791 63.1374 44.1791 63.1374H67.1958L62.3813 57.6541L47.8353 19.0736ZM144.721 58.8742H133.17V25.7219C133.17 24.7611 133.475 23.8268 134.041 23.0558L136.962 19.0808H126.483V41.1103H125.375V19.0808H114.894L117.872 22.9093C118.418 23.6155 118.717 24.4849 118.717 25.3784V56.8447C118.717 57.7405 118.418 58.6076 117.872 59.3137L114.894 63.1422H151.379L152.012 53.4004C152.012 53.4004 150.62 54.7911 147.539 57.4667C146.464 58.2737 146.374 58.879 144.721 58.879M329.841 23.0462L332.761 19.0712H322.28V41.1175H321.172V19.0736H310.693L313.613 23.0486C314.179 23.8196 314.485 24.7563 314.485 25.7147V56.494C314.485 57.4547 314.179 58.389 313.613 59.16L310.693 63.135H332.761L329.841 59.16C329.272 58.389 328.969 57.4547 328.969 56.494V25.7122C328.969 24.7539 329.275 23.8172 329.841 23.0462ZM283.451 19.0736V41.1199H282.346V19.0736H261.323L260.69 28.813C260.69 28.813 262.08 27.4223 265.163 24.7491C266.24 23.9397 266.331 23.3344 267.981 23.3344H275.659V56.4916C275.659 57.4523 275.353 58.3866 274.787 59.1576L271.867 63.1326H293.935L291.015 59.1576C290.449 58.3866 290.143 57.4523 290.143 56.4916V23.3344H297.818C299.471 23.3344 299.559 23.9397 300.636 24.7491C303.717 27.4223 305.109 28.813 305.109 28.813L304.476 19.0736H283.454H283.451ZM374.236 59.1048C373.784 59.5227 373.254 59.7893 372.702 59.8806C371.692 60.0439 370.637 60.1279 369.567 60.1279C365.858 60.1279 363.112 58.4179 360.377 54.4068C357.782 50.5951 356.466 46.1229 356.466 41.1199C356.466 36.1169 357.717 31.4694 360.186 27.6793C362.777 23.6923 365.531 21.9918 369.388 21.9918C370.398 21.9918 371.382 22.1311 372.308 22.4073C372.729 22.5563 378.642 27.4151 382.515 30.6432L382.747 30.8353L382.561 20.9206L382.491 20.8798C381.216 20.1688 379.234 19.4987 376.602 18.8935C374.159 18.3339 371.735 18.0432 369.357 18C352.277 18.6989 350.311 38.4179 350.128 41.1079H349.017C349.158 39.0087 350.505 24.4225 361.13 18.9367C360.399 19.1241 359.675 19.3378 358.966 19.5804C355.869 20.6396 353.079 22.1744 350.672 24.1391C348.265 26.1037 346.307 28.6713 344.855 31.7744C343.405 34.8728 342.67 38.353 342.67 42.1191C342.67 45.1382 343.157 47.9315 344.112 50.4222C345.067 52.9153 346.347 55.0241 347.911 56.6909C349.473 58.3506 351.3 59.7821 353.344 60.9494C355.389 62.1143 357.512 62.9669 359.656 63.4833C361.801 63.9973 363.969 64.2615 366.102 64.2615C369.233 64.2615 372.301 63.942 375.227 63.3176C378.152 62.6907 380.552 61.9101 382.365 60.9998L382.434 60.9638L383.002 51.0058L374.238 59.1048H374.236ZM87.7025 19.0736V41.1103H86.5968V19.0736H65.5719L64.939 28.813C64.939 28.813 66.3313 27.4223 69.4119 24.7491C70.489 23.9397 70.5773 23.3344 72.2299 23.3344H79.9053V56.4916C79.9053 57.4523 79.5996 58.3866 79.0337 59.1576L76.113 63.1326H98.1792L95.2609 59.1576C94.6949 58.3866 94.3892 57.4523 94.3892 56.4916V23.3344H102.065C103.717 23.3344 103.808 23.9397 104.883 24.7491C107.963 27.4223 109.356 28.813 109.356 28.813L108.723 19.0736H87.6977H87.7025Z" fill="#D7B730"/>
<path d="M77.3905 76.9431H74.5749L66.6249 94.5172H69.3927L71.9957 88.7865H79.8526L82.3602 94.5172H85.2211L77.3905 76.9431ZM73.1683 86.1901L75.9337 80.0583L78.704 86.1901H73.1683Z" fill="#D7B730"/>
<path d="M97.2572 94.964C93.6917 94.964 91.0194 93.9264 88.5095 91.3565L90.2911 89.6368C92.543 91.736 94.561 92.3725 97.6106 92.3725C99.5545 92.3725 103.027 91.7576 103.027 89.2093C103.027 88.3374 102.583 87.6769 101.854 87.2037C100.94 86.6153 100.073 86.5649 97.4936 86.5192L94.8667 86.4736C92.1442 86.4256 89.6606 84.9869 89.6606 81.9678C89.6606 79.3978 91.7932 77.6733 94.0213 76.9432C95.0052 76.6357 96.0392 76.494 97.047 76.494C99.674 76.494 102.208 77.2962 104.316 78.9006L102.886 80.9518C100.985 79.7725 99.6501 79.112 97.3742 79.112C95.6643 79.112 92.2374 79.6548 92.2374 81.9438C92.2374 83.6659 93.8087 83.9733 95.1915 83.9733H97.7969C99.7432 83.9733 101.338 83.9973 103.072 85.0349C104.644 85.9788 105.534 87.5808 105.534 89.4206C105.534 93.6911 100.682 94.964 97.2548 94.964" fill="#D7B730"/>
<path d="M114.497 76.9335H111.987V94.5293H114.497V76.9335Z" fill="#D7B730"/>
<path d="M136.028 94.5293L125.475 81.1295V94.5293H122.963V76.9335H125.451L135.981 90.3789V76.9335H138.562V94.5293H136.028Z" fill="#D7B730"/>
<path d="M155.405 76.4604C150.386 76.4604 145.977 80.3513 145.977 85.5177C145.977 90.684 150.08 95.0025 155.379 95.0025C160.678 95.0025 164.807 90.9938 164.807 85.8035C164.807 80.6131 160.588 76.4628 155.405 76.4628V76.4604ZM155.405 92.4061C151.747 92.4061 148.487 89.62 148.487 85.8251C148.487 82.0302 151.487 79.052 155.379 79.052C159.272 79.052 162.274 81.79 162.274 85.6594C162.274 89.5287 159.157 92.4061 155.403 92.4061H155.405Z" fill="#D7B730"/>
<path d="M236.293 94.964C232.728 94.964 230.053 93.9264 227.546 91.3565L229.325 89.6368C231.577 91.736 233.595 92.3725 236.642 92.3725C238.588 92.3725 242.061 91.7576 242.061 89.2093C242.061 88.3374 241.616 87.6769 240.888 87.2037C239.973 86.6153 239.107 86.5649 236.525 86.5192L233.898 86.4736C231.178 86.4256 228.692 84.9869 228.692 81.9678C228.692 79.3978 230.825 77.6733 233.055 76.9432C234.039 76.6357 235.071 76.494 236.081 76.494C238.708 76.494 241.241 77.2962 243.35 78.9006L241.917 80.9518C240.019 79.7725 238.681 79.112 236.406 79.112C234.696 79.112 231.269 79.6548 231.269 81.9438C231.269 83.6659 232.84 83.9733 234.223 83.9733H236.828C238.775 83.9733 240.37 83.9973 242.104 85.0349C243.675 85.9788 244.566 87.5808 244.566 89.4206C244.566 93.6911 239.711 94.964 236.286 94.964" fill="#D7B730"/>
<path d="M261.414 76.9336H251.257V94.5293H253.815V87.05H261.414C264.487 87.05 266.524 85.0709 266.524 81.9558C266.524 78.8406 264.509 76.9312 261.414 76.9312V76.9336ZM261.414 84.4585H253.815V79.5035H261.414C263.102 79.5035 263.993 80.212 263.993 81.9582C263.993 83.7043 263.054 84.4585 261.414 84.4585Z" fill="#D7B730"/>
<path d="M281.469 76.4604C276.447 76.4604 272.039 80.3513 272.039 85.5177C272.039 90.684 276.144 95.0025 281.443 95.0025C286.742 95.0025 290.871 90.9938 290.871 85.8035C290.871 80.6131 286.651 76.4628 281.469 76.4628V76.4604ZM281.469 92.4061C277.811 92.4061 274.551 89.62 274.551 85.8251C274.551 82.0302 277.553 79.052 281.443 79.052C285.333 79.052 288.34 81.79 288.34 85.6594C288.34 89.5287 285.221 92.4061 281.469 92.4061Z" fill="#D7B730"/>
<path d="M314.189 82.1215C314.189 78.7733 311.868 76.9335 308.677 76.9335H298.31V94.5293H300.868V87.2422H307.387L310.905 94.5293H313.792L310.155 87.1461C312.689 86.5336 314.189 84.7899 314.189 82.1215ZM300.868 84.6674V79.4795H308.677C310.342 79.4795 311.653 80.14 311.653 81.9798C311.653 83.8196 310.411 84.6674 308.677 84.6674H300.868Z" fill="#D7B730"/>
<path d="M327.512 79.5035V94.5293H325.026V79.5035H318.786V76.9335H333.678V79.5035H327.512Z" fill="#D7B730"/>
<path d="M346.674 94.964C343.109 94.964 340.437 93.9264 337.927 91.3565L339.708 89.6368C341.96 91.736 343.978 92.3725 347.025 92.3725C348.972 92.3725 352.444 91.7576 352.444 89.2093C352.444 88.3374 352 87.6769 351.271 87.2037C350.357 86.6153 349.49 86.5649 346.911 86.5192L344.284 86.4736C341.561 86.4256 339.078 84.9869 339.078 81.9678C339.078 79.3978 341.21 77.6733 343.438 76.9432C344.422 76.6357 345.456 76.494 346.462 76.494C349.091 76.494 351.622 77.2962 353.734 78.9006L352.301 80.9518C350.405 79.7725 349.067 79.112 346.789 79.112C345.077 79.112 341.654 79.6548 341.654 81.9438C341.654 83.6659 343.226 83.9733 344.609 83.9733H347.212C349.158 83.9733 350.753 83.9973 352.489 85.0349C354.061 85.9788 354.952 87.5808 354.952 89.4206C354.952 93.6911 350.094 94.964 346.672 94.964" fill="#D7B730"/>
<path d="M196.849 76.3739L180.786 85.6882L196.849 95.0024L212.914 85.6882L196.849 76.3739ZM199.571 89.8193C198.263 90.5807 197.539 90.8665 195.994 90.8665C194.007 90.8665 191.473 89.7737 191.473 87.4583C191.473 85.6041 193.19 84.5737 194.561 84.4008C194.215 84.0525 193.697 83.2767 193.697 82.3088C193.697 80.8653 194.831 79.883 196.894 79.883C198.265 79.883 199.59 80.3753 200.235 80.7861L199.478 82.292C198.943 81.9749 197.826 81.4538 196.942 81.4538C196.013 81.4538 195.557 81.8332 195.557 82.292C195.557 82.8612 195.965 83.2911 196.218 83.5602L199.748 87.4271C200.269 86.8723 200.696 86.2382 201.119 85.6185L202.537 86.5528C202.081 87.3454 201.527 88.0588 200.916 88.7241L202.633 90.6239H200.316L199.576 89.8169L199.571 89.8193Z" fill="#D7B730"/>
<path d="M193.221 87.5208C193.221 88.6929 195.017 89.0892 195.915 89.0892C196.94 89.0892 197.446 88.9306 198.358 88.4719L195.772 85.7146C194.874 85.9692 193.219 86.2838 193.219 87.5232L193.221 87.5208Z" fill="#D7B730"/>
<path d="M54.8969 94.9544C49.5021 94.9544 45.0459 91.3204 45.0459 85.6834C45.0459 80.3537 49.1511 76.5108 54.3786 76.5108C57.6169 76.5108 60.5257 77.8798 62.823 80.1183L60.9221 81.7444C59.0474 80.164 57.0295 79.0784 54.5195 79.0784C50.6747 79.0784 47.5558 81.7444 47.5558 85.7314C47.5558 89.997 51.1189 92.358 55.0593 92.358C57.8032 92.358 59.5155 91.4381 61.414 89.5263L63.1024 91.3661C60.9913 93.8664 58.1065 94.952 54.8945 94.952" fill="#D7B730"/>
</svg>
